<svg xmlns="http://www.w3.org/2000/svg" width="512" height="512" viewBox="0 0 512 512"><title>Gladitorium Fighters</title><path d="M253.874 33.017c-.703.895-1.302 1.801-1.333 2.014-.028.214-.172 2.029-.321 4.037-.154 2.083-.904 4.919-1.744 6.599-.81 1.623-1.673 3.797-1.917 4.834s-1.204 2.995-2.132 4.35c-1.416 2.064-1.7 3.184-1.761 6.913-.078 4.951-1.186 10.623-2.138 10.944-.34.115-.62.472-.62.793 0 4.46-7.556 14.148-11.391 14.602-1.78.21-3.692.757-4.25 1.214-1.772 1.451-5.703 2.979-7.661 2.979-1.042 0-3.222.707-4.846 1.572-1.623.865-3.58 1.572-4.349 1.572-.768 0-2.352.838-3.518 1.864-2.671 2.344-5.422 3.458-6.32 2.558-1.198-1.198-2.639-.673-5.114 1.862-1.35 1.382-2.917 2.515-3.482 2.515-1.133 0-3.31 1.528-10.433 7.325-7.256 5.905-13.284 4.959-23.344-3.669-1.136-.972-2.669-1.77-3.407-1.77-.739 0-1.789-.375-2.335-.837-.544-.459-2.346-1.335-4.002-1.945-1.655-.612-3.776-1.74-4.713-2.507s-2.693-1.775-3.904-2.24c-1.209-.466-2.766-1.32-3.457-1.9-1.876-1.573-5.087-2.68-6.484-2.237-1.823.579-2.178 3.353-.497 3.878 1.859.581 2.248 1.395 2.257 4.761.008 2.501.328 3.26 2.116 5.028 1.16 1.148 2.443 3.287 2.856 4.763s1.598 3.647 2.633 4.825c1.361 1.55 1.987 3.034 2.262 5.359.256 2.16.748 3.412 1.498 3.814 2.464 1.317 3.102 2.552 3.102 6.012 0 2.7.233 3.516 1.099 3.822 3.998 1.417 4.096 3.201.477 8.709-1.552 2.363-2.999 5.239-3.215 6.393-.249 1.321-1.194 2.756-2.563 3.882-2.398 1.978-9.25 15.275-10 19.409-.497 2.739-2.311 6.532-4.499 9.405-1.151 1.512-1.686 3.264-2.087 6.828-.322 2.869-.902 5.078-1.445 5.506-.499.392-1.478 1.995-2.174 3.559-1.378 3.092-4.209 4.962-8.235 5.44-1.186.139-3.963 1.09-6.171 2.113-2.46 1.138-5.05 1.858-6.689 1.858-2.005 0-3.027.375-4.083 1.498-1.084 1.155-2.237 1.558-5.022 1.761-2.391.174-4.272.73-5.555 1.643-1.068.761-2.548 1.382-3.289 1.382-1.487 0-4.778 1.519-6.431 2.965-.868.761-1.462.797-3.269.2-2.603-.859-3.867-.351-6.286 2.524-1.901 2.258-2.104 3.647-.54 3.688 4.229.112 6.859.841 8.418 2.338 1.326 1.27 2.089 1.545 3.377 1.222 2.455-.617 3.938.092 4.376 2.093.371 1.69.591 1.789 4.6 2.087 2.877.214 5.504.917 8.296 2.226 6.606 3.094 8.871 3.811 13.352 4.237 4.583.435 10.588 5.393 9.498 7.844-.231.52-.341 9.713-.245 20.428s.15 21.18.122 23.256c-.516 35.976-.62 37.236-3.488 42.791-.551 1.068-1.24 3.692-1.534 5.83-.39 2.854-.965 4.348-2.16 5.603-.894.942-1.819 2.488-2.055 3.44-.234.95-.68 1.728-.988 1.728-.306 0-.559.551-.559 1.225s-1.284 2.584-2.854 4.242c-1.57 1.66-3.022 3.725-3.228 4.589-.207.863-.681 1.956-1.053 2.426-1.214 1.536-2.353 29.583-1.525 37.591.592 5.748.568 7.495-.139 9.637-.722 2.188-.727 2.942-.028 4.606 1.216 2.892 1.168 6.056-.129 8.761-.969 2.017-1.032 2.767-.418 5.028.467 1.728.57 4.897.294 9.065-.308 4.646-.208 6.808.362 7.856.46.849.866 4.444.978 8.676.106 3.975.221 7.901.257 8.726s-.216 2.096-.563 2.829c-1.298 2.755-2.163 10.031-1.419 11.949l.705 1.819 4.853-.403c2.669-.221 6.34-.731 8.159-1.135 3.068-.68 3.413-.634 4.754.627 1.805 1.695 2.854 1.7 6.724.036 2.982-1.284 3.18-1.291 6.452-.262 2.993.942 3.623.96 5.536.161 1.401-.586 4.138-.873 7.805-.815 3.105.048 7.059-.274 8.788-.716 1.729-.439 4.597-.803 6.376-.808 3.798-.008 4.203-.576 3.411-4.813-.34-1.832-.304-3.606.101-4.771.39-1.118.467-3.756.196-6.665-.249-2.648-.542-11.394-.651-19.437-.216-15.882-1.14-21.309-3.496-20.561q-1.785.567-2.787-2.841c-.255-.863-1.063-2.56-1.799-3.769-.735-1.211-1.256-2.548-1.16-2.971.199-.88-1.386-3.52-3.502-5.828-.79-.865-1.583-2.279-1.757-3.142-.175-.865-.874-2.618-1.552-3.896-.679-1.277-1.234-3.486-1.234-4.906s-.31-3.814-.689-5.32c-.587-2.332-.495-3.284.628-6.449 1.595-4.488 1.607-5.577.133-10.976-.633-2.313-.929-4.435-.658-4.714 1.049-1.084 1.311-9.324.379-12.024-.576-1.675-.681-2.777-.287-3.022.34-.21.472-1.127.292-2.036s.039-2.338.488-3.177c.681-1.269.662-1.984-.115-4.265-.741-2.172-.782-3.105-.203-4.503.813-1.962 1.028-7.771.332-8.897-1.007-1.63-.943-23.267.076-25.236.899-1.74.874-2.079-.346-4.677-1.236-2.624-1.292-3.494-.93-13.93.456-13.12.446-16.015-.071-21.601-.306-3.303-.171-4.519.645-5.762.857-1.309.915-2.01.339-4.142-2.371-8.81 9.554-17.969 17.736-13.619 2.041 1.084 3.043 1.325 3.529.838 1.423-1.423 2.277 14.787 1.3 24.671-1.228 12.449-1.911 16.637-2.882 17.709-.76.838-.927 1.98-.698 4.736.165 1.998-.073 5.189-.526 7.091-1.112 4.644-1.174 21.116-.083 21.812 2.299 1.463 6.077 8.521 5.596 10.447-.073.285.108.371.399.19.83-.514 3.945 2.7 4.951 5.106.5 1.198 1.435 2.317 2.076 2.483 1.611.421 2.245 3.257 1.006 4.495-.874.874-1.155.834-2.839-.411-6.558-4.849-12.134 5.825-6.525 12.493.459.546.84 1.536.849 2.2.006.664.572 2.44 1.256 3.949.684 1.505 1.244 3.707 1.244 4.89 0 2.29 1.382 6.148 2.775 7.745 1.052 1.207 1.598 5.065 1.695 11.965.041 2.938.474 6.577.963 8.089.722 2.231.75 3.411.15 6.284-.813 3.889-.823 4.403-.251 11.711.619 7.908 1.75 10.26 5.388 11.196.845.216 2.101 1.25 2.794 2.296 1.582 2.394 3.724 2.487 6.042.266 2.234-2.14 2.834-1.652 3.35 2.731.542 4.621.9 5.821 1.737 5.821 1.6 0 6.335 2.927 7.095 4.382.454.874 3.188 3.784 6.071 6.469 2.886 2.683 6.007 5.6 6.939 6.483.932.885 2.061 2.433 2.506 3.441 1.959 4.426 7.846 4.439 7.143.017-.197-1.236-.049-4.795.328-7.905.56-4.616 1.006-12.414 1.221-21.369.34-14.264 1.585-35.29 2.107-35.629.41-.267.722-4.245.814-10.37.082-5.466.321-10.786.53-11.822.431-2.146 1.183-19.606.986-22.941-.285-4.863-.262-6.127.185-9.839.357-2.959.229-4.435-.542-6.284-.556-1.33-.927-3.404-.822-4.61.148-1.733-.06-2.24-.996-2.419-.649-.125-2.733-1.219-4.628-2.431-2.954-1.889-3.661-2.106-4.956-1.517-1.163.531-2.119.461-4.168-.306-1.462-.548-3.93-1.222-5.485-1.5-5.176-.921-7.661-1.967-9.832-4.139s-3.597-2.674-4.309-1.522c-1.224 1.98-7.227-2.672-7.227-5.6 0-.803-.849-2.428-1.886-3.608-2.097-2.389-2.114-2.507-1.24-8.702.448-3.169.986-4.705 1.926-5.487.972-.808 1.209-1.529.932-2.829-.84-3.913 5.843-9.726 9.495-8.259.975.39 3.996.659 6.714.597 3.791-.087 5.207.123 6.067.904.619.56 2.927 1.395 5.131 1.855 4.382.918 10.676 4.281 12.97 6.929.8.927 2.78 2.243 4.399 2.927 5.173 2.188 5.702 2.565 6.101 4.378.22 1.005 1.435 2.608 2.79 3.681 2.982 2.363 3.511 4.306 2.224 8.18-.554 1.665-.832 3.805-.624 4.805 1.038 5.005 1.037 6.521-.014 9.273-.909 2.382-.968 3.192-.343 4.701.79 1.909.613 11.442-.274 14.716-.35 1.29-.09 2.472.988 4.502 1.25 2.359 1.351 2.991.705 4.409-1.438 3.153-.971 6.185 1.133 7.382 1.305.743 1.881 1.553 1.881 2.649 0 1.786 1.678 2.961 3.888 2.724 1.17-.127 1.721.399 2.802 2.671 2.724 5.716 4.088 5.812 8.068.581 1.598-2.101 4.077-4.859 5.512-6.128 6.076-5.38 5.943-5.127 5.971-11.209.013-3.027-.27-6.221-.634-7.101-.879-2.132-1.081-5.669-.974-16.995.011-1.211-.193-6.058-.456-10.774-.445-7.987-.39-8.696.779-10.37.69-.988 1.431-2.927 1.644-4.309.418-2.724 3.773-6.253 7.854-8.269 1.148-.565 2.846-1.788 3.773-2.714.927-.928 2.416-1.87 3.308-2.093.892-.225 2.678-1.247 3.97-2.273s3.332-2.19 4.534-2.587c1.204-.397 2.923-1.403 3.82-2.235.96-.889 2.436-1.529 3.582-1.552 3.914-.077 7.56-.695 9.238-1.562 2.188-1.132 8.281-1.865 9.527-1.147 1.176.677 5.498 6.298 5.498 7.154 0 .341.251.622.56.622 1.853 0 1.898 10.553.06 13.53-.686 1.109-1.247 2.714-1.247 3.567 0 1.423-1.755 3.548-6.74 8.169-1.701 1.577-3.758 2.677-6.104 3.265-.969.243-2.789 1.266-4.043 2.272-1.335 1.071-3.716 2.135-5.74 2.564-1.901.403-4.014 1.123-4.696 1.596s-1.956.861-2.83.861c-2.041 0-9.938 2.252-11.007 3.139-.579.48-.814 2.642-.805 7.411.007 3.704-.291 7.497-.664 8.426-.487 1.216-.476 4.404.039 11.313.394 5.291.659 11.389.589 13.549-.231 7.051-.18 9.844.243 13.327.255 2.098.103 4.737-.392 6.8-.709 2.951-.681 3.587.223 5.116 1.403 2.374 1.272 7.361-.262 10.024-1.188 2.062-1.189 2.16-.056 4.084 1.368 2.321 2.104 16.361 1.421 27.113-.087 1.382.146 4.07.52 5.971s1.27 7.556 1.991 12.57c2.286 15.858 4.728 18.498 9.32 10.077 1.403-2.574 6.252-7.914 17.234-18.984 5.113-5.154 9.56-10.065 9.884-10.916.476-1.25 1.024-1.545 2.866-1.545 2.43 0 3.725-1.071 8.38-6.929l2.259-2.843-.168-10.041a9357 9357 0 0 0-.21-12.242c-.064-3.225.704-6.438 1.849-7.745 1.005-1.147 1.858-5.884 2.228-12.366.187-3.302 2.118-9.335 4.363-13.638.577-1.108 1.05-2.824 1.05-3.814 0-.992.448-3.313.996-5.154 3.139-10.571-2.974-13.69-7.824-3.994-1.068 2.136-2.231 4.062-2.584 4.281s-.642.909-.642 1.532c0 .625-.584 1.879-1.298 2.785s-1.123 1.935-.906 2.286c.43.697-1.515.856-3.087.252-1.45-.557-1.221-3.25.579-6.796.863-1.7 1.568-3.503 1.568-4.006 0-2.024 3.297-8.169 4.735-8.824.95-.433 1.723-1.552 2.139-3.099.359-1.332 1.349-3.027 2.2-3.767.85-.74 1.865-2.528 2.254-3.975.39-1.447.955-3.087 1.253-3.647 6.027-11.231 8.235-27.05 4.354-31.185-1.767-1.882-1.767-1.898-1.305-7.856.255-3.284.403-10.92.332-16.971-.13-10.678.502-20.044 1.452-21.566.255-.41.495-1.598.536-2.641.171-4.692 10.295-7.529 13.921-3.903 1.493 1.493 4.103 13.626 3.615 16.797-.844 5.454-.058 35.534 1.012 38.774.594 1.8.525 2.829-.382 5.714-1.266 4.026-1.266 3.968-.291 14.905.75 8.402.817 10.235.694 18.856-.039 2.766-.029 6.583.022 8.485s.056 5.014.011 6.914c-.046 1.901-.048 5.933-.007 8.956.144 10.113.045 16.261-.415 25.926-.18 3.803-.306 7.904-.282 9.114.082 3.748-1.457 10.262-2.974 12.604-.797 1.228-1.885 3.916-2.418 5.969-1.014 3.909-5.368 11.811-7.466 13.548-1.161.962-1.228 2.072-1.347 22.683-.07 11.921-.318 22.803-.551 24.182-.522 3.094 2.726 6.205 6.202 5.94 1.065-.082 5.611-.214 10.104-.294 4.495-.082 8.952-.382 9.909-.666 2.336-.697 7.377.094 7.377 1.159 0 2.044 3.825 1.371 5.5-.966 1.644-2.298 7.644-1.997 8.577.43.499 1.299 3.151 1.079 4.463-.371.851-.942 1.943-1.26 4.341-1.266 6.219-.017 6.024.252 5.603-7.756-.467-8.899-.428-15.635.116-19.351.323-2.209.172-3.308-.618-4.514-.803-1.225-.889-1.887-.373-2.854.368-.69.692-2.476.717-3.97.024-1.491.267-3.278.541-3.97.291-.735.133-2.495-.384-4.243-.769-2.615-1.058-13.686-.741-28.438.024-1.037-.154-3.582-.394-5.656-.241-2.075-.19-4.418.113-5.204.315-.827.304-3.37-.031-6.007-.495-3.904-.415-4.921.553-6.962 1.088-2.29 1.089-2.563.028-6.656-.617-2.378-1.048-6.035-.974-8.259.175-5.267.13-5.564-.844-5.564-1.219 0-3.407-2.558-3.906-4.565-.442-1.784-1.841-3.111-5.255-4.99-1.368-.752-1.947-1.536-1.947-2.633 0-.861-.221-1.701-.49-1.868-.27-.165-.561-1.219-.647-2.338s-.541-2.341-1.01-2.719c-.471-.377-1.189-1.736-1.596-3.02s-1.419-2.839-2.249-3.457l-1.509-1.123-.354-20.113a6331 6331 0 0 0-.711-34.882c-.431-17.873-.45-16.178.262-25.736l.582-7.824 2.129-1.778c1.171-.977 3.158-2.054 4.416-2.393s2.637-1.038 3.065-1.554c.428-.517 1.238-.945 1.801-.951.563-.008 3.002-.713 5.423-1.568 2.419-.857 5.106-1.561 5.969-1.568 1.747-.011 13.173-4.015 13.764-4.822.796-1.081 3.683-2.333 7.869-3.409 2.834-.728 4.861-1.669 5.813-2.698 1.935-2.083 1.933-2.085-1.521-2.494-3.127-.369-9.502-1.319-13.514-2.012-1.296-.223-2.356-.617-2.356-.871 0-.576-4.565-2.677-5.38-2.475-.925.227-5.498-.697-6.712-1.357-.6-.326-2.515-.594-4.253-.594-2.282 0-4.11-.506-6.562-1.814-2.776-1.481-3.923-1.756-6.26-1.491-2.605.294-3.032.141-4.745-1.693-1.035-1.109-2.668-2.224-3.627-2.479-1.468-.388-1.873-.988-2.565-3.786-.452-1.829-1.363-3.906-2.024-4.614-1.406-1.508-3.502-7.63-4.12-12.028-.241-1.715-1.022-3.753-1.761-4.6-.891-1.018-1.432-2.691-1.644-5.071-.31-3.506-.344-3.559-2.671-4.106-2.301-.542-2.357-.624-2.377-3.477-.024-3.049-1.108-4.965-3.553-6.274q-1.324-.705-2.089-4.022c-.802-3.471-1.942-5.733-3.796-7.522-1.764-1.703-2.175-5.846-.885-8.895 2.425-5.731 3.644-8.11 4.983-9.721 1.81-2.174 2.58-3.737 3.036-6.15.439-2.325 4.188-8.894 6.022-10.554.716-.647 1.868-2.693 2.563-4.546.692-1.852 1.971-4.495 2.841-5.873s1.583-3.148 1.585-3.931.426-2.237.943-3.227c1.913-3.666.377-5.008-2.95-2.579-1.145.837-5.603 3.246-9.906 5.356s-8.122 4.21-8.485 4.671c-.365.459-2.735 1.904-5.269 3.213-2.533 1.311-4.938 2.846-5.341 3.413-.406.566-2.293 1.834-4.193 2.817-12.055 6.231-11.932 6.179-13.38 5.433-.764-.394-2.937-1.103-4.827-1.573-2.973-.741-3.623-1.189-4.8-3.306-1.068-1.921-1.883-2.566-3.79-3-3.099-.705-6.339-2.113-6.881-2.991-.231-.375-1.914-1.342-3.74-2.149s-3.488-1.742-3.695-2.076-1.575-.794-3.043-1.02c-4.135-.64-6.5-1.517-7.717-2.862-.878-.969-1.939-1.234-4.957-1.234-2.68 0-4.572-.392-6.262-1.299-2.016-1.081-3.07-1.23-6.276-.892-4.761.504-7.577-.374-7.005-2.178.281-.88-.216-1.813-1.755-3.3-1.887-1.82-2.152-2.471-2.198-5.38-.032-2.1-.409-3.666-1.028-4.287-1.068-1.068-1.159-1.475-.998-4.47.066-1.192-.55-3.133-1.508-4.769-.889-1.517-1.616-3.636-1.616-4.709 0-1.071-.243-2.1-.54-2.282-.298-.184-.712-1.791-.921-3.574-.212-1.782-.86-3.965-1.44-4.852-1.026-1.565-1.962-4.444-2.49-7.655-1.371-8.341-3.115-11.113-5.27-8.373zm35.148 86.838c2.01 2.294 2.588 2.579 5.995 2.935 4.083.427 7.279 1.414 7.99 2.469.246.366 1.656.712 3.132.771 2.039.082 3.026.504 4.106 1.76.782.911 2.243 1.94 3.246 2.29 1.02.356 1.988 1.244 2.195 2.012.572 2.136.452 4.716-.243 5.147-.346.214-.628 1.361-.628 2.548 0 4.736-8.467 7.974-11.166 4.27-1.04-1.427-1.7-1.677-4.58-1.729-2.998-.054-3.512-.268-4.681-1.947-.724-1.037-1.585-1.922-1.914-1.969-6.034-.85-15.522-3.768-18.243-5.611-1.753-1.189-3.529-2.16-3.944-2.16-2.411 0-2.224-5.701.317-9.632 3.387-5.241 14.241-5.918 18.418-1.15zm-50.107-.891c1.063 1.552.499 8.808-.857 11.034-1.785 2.929-2.809 3.587-6.282 4.047-1.618.214-3.077.751-3.246 1.191s-2.945 2.16-6.168 3.819c-3.225 1.66-6.547 3.556-7.381 4.214-.837.658-2.363 1.196-3.389 1.196-1.129 0-2.813.75-4.265 1.898-4.874 3.861-13.397 6.164-15.838 4.281-3.518-2.714-1.729-10.841 3.135-14.222 7.539-5.243 14.609-9.453 18.063-10.755 2.076-.782 4.578-1.855 5.565-2.385.986-.529 3.107-1.337 4.713-1.791a98 98 0 0 0 5.748-1.866c5.515-2.026 9.109-2.258 10.204-.659zm107.989 42.166c.673.214 1.222.945 1.222 1.627 0 1.405 1.747 5.031 4.079 8.469 1.032 1.521 1.579 3.19 1.579 4.832 0 1.964.459 3.015 2.115 4.847 1.485 1.643 2.245 3.222 2.558 5.298.245 1.627 1.13 3.97 1.971 5.208 4.511 6.65-.582 14.584-9.063 14.117-3.538-.193-3.867-.333-3.867-1.638 0-.813-.956-2.347-2.217-3.559-2.215-2.129-4.695-6.71-4.695-8.671 0-.571-.85-1.781-1.887-2.691-1.159-1.018-1.885-2.264-1.885-3.241 0-1.817-.74-3.688-2.524-6.382-4.995-7.542-4.216-13.135 2.374-17.018 2.089-1.232 7.969-1.919 10.241-1.198zm-169.44 5.849c.703.883 1.626 2.048 2.046 2.587 1.276 1.632.709 8.051-1.088 12.293-.294.69-.873 2.388-1.29 3.77-1.007 3.342-2.779 6.806-4 7.819-.599.497-.988 1.816-.988 3.351 0 2.349-2.02 7.409-3.998 10.013-1.087 1.431-6.82 4.272-8.62 4.272-.788 0-2.333.326-3.429.722-1.754.633-2.16.558-3.345-.63-.744-.741-1.911-1.349-2.595-1.349-1.749 0-2.149-2.275-.983-5.579.534-1.512.972-3.633.975-4.714.001-1.079.257-2.952.568-4.163.31-1.209.737-2.97.947-3.91.212-.941 1.511-2.828 2.89-4.193 1.739-1.722 2.506-3.025 2.511-4.26.005-1.15 1.446-3.874 4.085-7.723 2.243-3.269 4.077-6.267 4.077-6.659 0-3.65 9.605-4.943 12.232-1.648zm2.832 182.218c.03 2.074-2.237 1.894-2.768-.216-.57-2.269.738-3.846 1.907-2.303.463.609.85 1.742.859 2.52zm2.677 3.044c-.296 1.549-.31 1.552-1.201.282-.998-1.425-.617-2.661.671-2.166.504.193.712.932.53 1.885zm149.33 4.898c.111.945-.108 2.091-.487 2.55-.379.456-.807 3.338-.954 6.404-.171 3.615-.829 7.342-1.87 10.601-.883 2.766-1.607 6.017-1.609 7.228-.003 1.209-.305 3.284-.675 4.61-.492 1.776-.464 3.207.105 5.432.786 3.068.06 7.911-1.483 9.909-.332.43-.418 2.01-.193 3.514 1.378 9.191.962 11.308-1.862 9.461-1.697-1.112-1.753-3.735-.103-4.755.504-.31.32-1.15-.617-2.834-1.466-2.636-1.545-7.22-.346-19.99.606-6.437 1.112-8.503 2.978-12.13.992-1.933.996-2.29.039-5.214-1.076-3.291-.361-5.452 2.611-7.893.486-.399 1.05-2.378 1.253-4.399.476-4.729 2.741-6.483 3.212-2.487zm-147.549 2.688c.963 2.533-.33 3.317-1.557.945-1.232-2.384-1.236-2.618-.038-2.618.526 0 1.245.752 1.595 1.673m3.23 11.897c-.207 2.503-.053 3.685.534 4.046 1.089.675 1.632 7.828.64 8.441-1.727 1.068-2.556-1.004-2.556-6.397 0-3.938-.285-5.812-1.101-7.196-1.059-1.801-1.054-1.906.107-2.757 1.936-1.424 2.712-.165 2.376 3.865zm3.238 20.485c.48.767.431 1.491-.178 2.63-.802 1.498-.748 2.488.266 4.952.346.84.144 1.101-.85 1.101-1.806 0-2.44-1.545-2.531-6.173-.083-4.18 1.493-5.382 3.292-2.51zm.829 13.413c2.018 2.017.717 8.467-1.708 8.467-1.898 0-2.666-1.673-2.335-5.099.387-4.03 2.02-5.392 4.043-3.37z"></path></svg>
