<svg xmlns="http://www.w3.org/2000/svg" width="32" height="32" viewBox="0 0 32 32"><title>Claws of Karanak</title><path d="M20.669 30.644c-1.229-1.352-1.303-1.475-.909-1.893.221-.221.393-.688.393-1.032-.025-.836-.86-2.581-1.573-3.244-.59-.565-.614-.59-.246-1.671.639-1.819-.025-5.211-1.254-6.366-1.745-1.622-3.269 1.426-2.335 4.596.221.688.221 1.131.049 1.45-.418.787-.885 4.375-.664 5.162.27.934.246 1.032-.59 2.556l-.713 1.278-1.77-3.49.516-1.032c.418-.836.492-1.327.418-2.999-.049-1.229-.246-2.335-.516-2.876-.442-.885-.442-.934.049-1.721.737-1.204.688-2.777-.098-3.54-.811-.811-1.917-.811-2.753.025-.541.565-.614.762-.467 1.794l.147 1.155-2.04.664c-2.212.713-2.753.811-2.507.418.098-.147.295-1.106.442-2.163.295-1.819.32-1.893 1.18-2.31.664-.295 1.082-.762 1.549-1.721.713-1.426.787-2.114.344-3.343-.27-.713-.246-.86.123-1.057.787-.467 1.229-1.671 1.057-3.023a16.19 16.19 0 0 0-.295-1.77c-.098-.418.025-.59.639-.836.418-.172 1.401-1.032 2.212-1.942l1.45-1.622.688.664c.811.762 1.77 1.18 2.802 1.18.885 0 3.048-1.057 3.244-1.598.246-.639.541-.442 1.721 1.229.713.983 1.499 1.77 2.016 2.016.934.442.983.688.614 2.089-.344 1.229.074 2.851.909 3.564.59.467.639.614.369 1.18-.393.86-.369 1.671.098 2.777.492 1.204 1.524 2.261 2.237 2.261.516 0 .565.098.565 1.229 0 .664.123 1.721.295 2.335.172.59.221 1.155.147 1.229-.074.098-.516-.025-.959-.246-.442-.246-1.254-.565-1.794-.713-1.008-.295-1.008-.295-1.081-1.549-.074-1.081-.197-1.376-.811-1.917-.86-.713-1.204-.762-2.163-.246-1.081.541-1.327 1.573-.885 3.515.221.885.59 1.966.86 2.384.369.59.492 1.229.492 2.433 0 2.114.418 3.761 1.057 4.203l.516.369-.541 1.721c-.32.934-.639 1.745-.737 1.794s-.762-.541-1.499-1.352zm1.179-1.597c-.369-.442-.836-.025-.614.541.123.344.221.369.516.123s.32-.393.098-.664zm-8.824-.713c0-.344-.516-.467-.811-.172-.221.221.32.836.59.664.123-.074.221-.295.221-.492zm7.718-4.99c.172-.27-.074-1.008-.344-1.008s-.516.737-.344 1.008c.074.123.221.221.344.221s.27-.098.344-.221zm-7.472-2.483c0-.27-.147-.492-.344-.492-.442 0-.713.393-.516.737.27.442.86.27.86-.246zM6.388 17.42c0-.32-.172-.492-.492-.492s-.492.172-.492.492.172.492.492.492.492-.172.492-.492zm20.352.074c-.123-.639-.934-.713-.934-.098 0 .369.147.516.516.516.344 0 .467-.123.418-.418zm-11.725-7.325.295-.737.393.909c.467 1.106.59 1.131.959.295.369-.737.664-.614.86.393.123.516.27.688.541.59.27-.123.369-.541.369-1.745 0-1.942.295-1.942 1.352 0 .393.762.86 1.401 1.008 1.401.172 0 .541-.197.836-.442.516-.418.541-.516.246-1.843-.147-.787-.246-1.819-.221-2.335.074-1.032-.074-1.401-.762-1.77-.393-.221-.541-.123-.86.492-.541 1.032-.909.934-.737-.172.123-.811.098-.885-.172-.516a9.582 9.582 0 0 0-.737 1.155c-.516.934-.934.983-.959.098-.025-.393-.098-.959-.197-1.303l-.197-.614-.32.688c-.221.442-.467.639-.688.541-.59-.221-1.032.369-1.032 1.376 0 .541-.098.959-.197.959-.32 0-.959-.787-1.303-1.598l-.32-.737-.123.983-.147.983-.713-1.032c-.836-1.254-1.303-1.352-1.475-.246-.074.418-.197 1.18-.27 1.647-.467 2.999-.467 2.876.221 3.318.836.541 1.204.393 1.893-.885.811-1.45 1.106-1.45 1.278.025.074.688.221 1.376.32 1.524.197.295.246.197.86-1.401z"></path></svg>
