<svg xmlns="http://www.w3.org/2000/svg" width="1024" height="1024" viewBox="0 0 1024 1024"><path d="m715.142 230.702-.196-.944-4.507.944-1.704 11.488c-1.872 25.433.569 45.773-2.62 65.925l.179 11.495-2.262 12.611-2.262 7.16 15.052.748 10.728-3.206-3.01-5.451-.179-8.088.554-6.024 13.929-14.135 16.37-7.713 3.576 6.785 9.422 9.601 5.451 5.467-.748 12.432-3.01 10.919 14.125 3.58 11.667-5.093-5.451-12.042c.36-12.253.179-18.839.179-25.612l-.179-2.637 3-6.981-2.441-5.647 1.512-4.328v-50.103c-3.385 2.816-6.216 5.272-9.031 7.534l-1.512 2.066-4.703 3.01-13.75 13.751-10.919 10.17-14.483-11.878c-10.545-10.349-15.052-16.199-19.575-21.479l-2.066-3.192zM274.048 350.677l-3.385-5.093-3.01-5.272c-.179-13.929-.179-26.182 0-38.614l.569-3.576 4.328-.375 6.216 3.01 7.896 2.816 10.153 5.093 14.125 7.908-.375 16.191-1.512 10.739-2.262 5.077 1.693 1.704 13.929.179 8.664-.554.179-2.262-3.576-6.408c-.196-34.286-.196-65.733-.196-97.194l1.128-9.422-20.893-4.898-.179 1.887.748 22.048.179 14.873-10.723-3.955c-10.728-5.093-17.314-8.664-24.082-11.684l-7.339-8.856 5.257-8.088.569-6.408h-29.735l3.01 4.328 3.385 8.477c.179 31.828.179 60.453.179 89.09l.196 11.112-4.344 7.729h19.755zm324.228-73.267-1.704-1.887-2.066-4.344-11.667-11.863-8.088-11.303 6.59-2.083 3.768-.936 4.507-2.458 7.908-1.887 2.62-8.472-7.144-5.842-5.451-7.713-9.974-8.088-4.328-9.24-5.832 1.512-2.262 4.149-5.64 7.729-4.703 10.153-4.344 2.262-11.667-8.472-2.262-8.472-6.948-5.842-7.713-4.149c-14.873 15.069-27.671 27.874-40.469 40.306l-4.882 2.262a1610.034 1610.034 0 0 0-31.422 31.271l-.748 3.192 7.518 8.283 2.441 4.898 10.349 10.545 6.216 7.534-4.524 6.216-9.405 5.832-5.832-1.512-5.077 2.831-4.149.554 1.887 5.842c10.153 10.728 19.006 19.201 27.479 27.863l3.955 2.262 4.328-7.16 8.088-14.125 2.083-4.719 4.134.196 2.637.748 1.887 1.512 2.816 7.16 6.408 2.262.936 4.524 4.328 1.128 3.206 1.887 6.395-2.637 6.785-6.408 7.144-8.104 9.405-3.955 2.083-5.832 3.955-1.887 8.088-7.534c14.663-15.069 26.15-26.751 37.638-38.422zm258.183-114.331v238.452c-.554 4.898-1.318 9.601-1.693 14.498l-1.318 5.093-20.893-.196-12.791-.936-7.908-7.729-16.174-2.066c-11.863-.748-17.135 1.318-22.967 0l-21.072-2.083c-13.554-.936-16.566-.748-19.38-.936l-9.405 1.318-7.534 13.559-15.622-1.128-15.995-3.955-7.16-14.515c-21.821-.554-38.011-.748-54.187-.748l-9.422 6.216.748 7.339-10.344 13.559-9.226 9.047-.569 6.024 5.842 5.272 7.518 13.943c-6.216 16.007-13.929 20.519-20.324 26.182l-6.964 7.908c-1.887 17.899-3.01 30.51-3.01 43.318l-.748 23.543c4.703 22.423 3.192 33.527 3.192 44.456l-.375 230.919c0 19.031.196 38.044.196 57.261H458.807c-.179-1.704-.375-3.206-.179-4.719l1.318-82.304c0-3.192-1.128-6.59-1.128-9.795l-.179-91.531V500.029l-3.385-.569-5.832-13.75-14.304-6.024-2.637-8.104-.748-5.451 9.405-17.704 2.637-9.991 5.077-1.512-.748-15.052c-11.846-7.908-18.257-13.18-25.027-17.704l-4.703-2.637c-16.191-.944-30.119-1.128-43.846-1.704l-16.007-.554-13.912 7.908-6.024 8.664-5.647 5.647h-15.995l-9.96-.944-3.768-5.077-6.024-8.104c-15.426.748-26.344 1.128-37.263 1.704l-3.576.748-11.667 1.128-11.488-.569-8.28 1.32-16.191 1.693-7.144 7.908h-19.38l-13.175-1.128-1.693-16.007V167.028l.179-2.816 12.236-1.887 8.836 1.693 3.58 6.408 9.031 12.057c21.072-1.128 34.438-.554 47.612-.748l9.21-1.128 15.431.569 12.986-2.458 6.395-8.851 2.066-7.16h20.711l12.415 1.512 2.066 7.908 2.458 13.367c24.839 0 42.341 0 60.021-.179l2.831-.375 9.21-9.616 9.226-7.713c14.304-8.856 25.971-17.33 38.582-22.977l41.59-13.376c9.78-2.816 19.943-3.01 29.924-1.887l18.257 2.637 14.483.196c9.226 2.637 16.191 4.524 22.585 7.713l17.687 10.366 9.78 6.785 3.385 7.713 9.974 2.458 5.077 9.795 10.349 7.534c20.135.375 36.694 0 53.254-.375l3.192-1.887 1.32-8.664 1.512-10.739 22.765-.375 12.236 1.512 2.066 7.908 5.272 6.408 6.021 3.58 12.611-.944 13.929.944c19.185.179 34.054.179 48.93 0l3.385-.569 6.574-7.908 6.59-9.974 15.052-.196z"></path><path d="m560.454 278.348-17.118 19.031-5.272 1.128-.748 4.898-6.964 4.328-9.78 6.408-5.64-4.703 7.713-9.616c10.919-10.728 17.495-17.33 24.263-23.92l6.59-3.768 5.451 4.898zM530.16 248.212l-3.01 4.344-11.846 11.684-6.408 8.088-2.066 3.01-5.272 3.385-5.077 3.206-5.832-.375-1.693-6.216c12.221-11.863 21.447-21.479 31.226-30.695l5.077-1.32 3.768 2.458zM267.835 273.27l1.693-1.887 7.339 1.512 13.554 6.59 12.599 7.354 4.524 4.524-1.887 2.262-6.021-1.887-19.006-8.477-11.112-7.908zM739.974 282.306l-7.518 5.832-7.713 3.58v-13.559l.748-7.354h2.816l7.713 7.729zM773.088 292.098l-6.216-7.534 1.704-8.283 5.077-3.58 1.887 1.887-1.512 11.303z"></path></svg>
