<svg xmlns="http://www.w3.org/2000/svg" width="32" height="32" viewBox="0 0 32 32"><title>Askurgan Trueblades</title><path d="M15.369 30.554c-1.139-.399-2.278-2.278-2.278-3.759.028-1.367 1.538-8.115 2.762-12.159.313-1.054.769-1.111.883-.114.057.456.256.997.456 1.196.199.171.598 1.338.883 2.563.285 1.253.74 2.705.997 3.246s.712 1.993.997 3.218c.513 2.164.513 2.25-.029 3.559-.826 1.936-2.734 2.876-4.67 2.25z"></path><path d="M23.029 21.613c0-.142 0-2.62.029-5.524.029-3.275-.057-5.382-.256-5.496-.142-.085-.883.342-1.623.997-1.595 1.367-2.591 1.879-2.933 1.509-.114-.142-.598-1.281-1.025-2.534-1.794-5.239-1.68-5.296-2.278 1.253-.057.683-.171 1.281-.256 1.367-.199.199-4.072-1.623-4.471-2.079-.171-.228-.513-.399-.712-.399-.313 0-.399.569-.399 2.506 0 2.278.085 2.677 1.025 4.613.541 1.168 1.224 2.363 1.452 2.648.683.712.256.911-1.851.883-1.595-.029-2.164-.171-3.502-.911-2.392-1.367-5.78-5.239-6.122-7.033-.285-1.509.028-4.442.626-5.98.883-2.306.769-2.221 3.389-2.05l2.335.171.854-2.05.826-2.05 2.563.057c1.395 0 3.36.057 4.385.085s3.275-.057 5.04-.142l3.161-.199 1.224 1.822c1.452 2.136 1.538 2.221 2.648 2.022.683-.114 1.196.085 2.278.826 2.136 1.424 2.591 2.221 2.563 4.328-.085 2.961-.769 4.072-5.467 8.97-2.164 2.25-3.417 3.104-3.502 2.392zM7.054 16.915c-.228-.427-.37-1.936-.399-4.328 0-4.1-.057-4.214-2.107-4.584-.997-.171-1.025-.171-1.822 1.509l-.797 1.68.854 1.68c.854 1.709 3.559 4.67 4.271 4.67.285 0 .285-.114 0-.626zm20.445-2.278.826-1.652c.228-.399.513-1.281.683-1.993.256-1.224.256-1.281-.712-2.193-.57-.513-1.253-.94-1.509-.94-1.025 0-1.196.655-1.111 4.243.085 3.389.085 3.446.74 3.446.456 0 .769-.285 1.082-.911zm-14.408-8.03c0-2.591-.228-2.961-2.05-3.389-1.025-.256-1.936.854-1.936 2.363 0 .911.171 1.224 1.224 2.05 1.452 1.196 2.25 1.652 2.534 1.481.142-.085.228-1.224.228-2.506zm8.115 1.509c1.481-.826 1.566-.94 1.566-1.965 0-2.42-.997-3.246-3.161-2.591-1.367.427-1.623 1.167-1.111 3.417.541 2.449.456 2.392 2.705 1.139z"></path></svg>
