<svg xmlns="http://www.w3.org/2000/svg" width="32" height="32" viewBox="0 0 500 500"><title>Grombrindal</title><path d="M223.948 156.717v-20.553s-3.574-1.49-3.475-4.865c.1-3.376 5.262-4.667 5.262-4.667v-4.468c0-2.184 1.192-2.68 6.256-2.68h36.836c4.071 0 4.17 7.247 4.17 7.247s5.164.1 4.766 5.163c-.397 5.064-3.078 4.667-3.078 4.667l.2 20.156s15.614-2.014 35.733-8.078c2.67-.804 6.74 1.484 9.542.532 2.571-.873 3.867-4.975 6.507-5.98 13.941-5.306 28.576-12.5 40.954-22.12 36.539-28.396 60.766-63.346 60.766-63.346s2.357 3.049 6.019 8.998c1.136 1.846.394 5.159 1.75 7.558.953 1.687 3.956 2.322 4.992 4.279 14.92 28.201 37.241 84.282 34.302 163.646-1.546 41.745-11.25 78.565-23.144 108.719-.667 1.69-2.985 2.327-3.664 3.975-.617 1.495.406 4.006-.22 5.466-21.13 49.34-46.844 78.434-46.844 78.434s-6.466-15.225-17.224-33.234c-.559-.935.231-3.051-.35-4-1.764-2.877-4.993-4.635-6.956-7.57-7.83-11.708-17.177-23.486-27.498-32.245-44.703-37.939-73.872-34.553-73.872-34.553l-.496 6.057s4.964 1.49 3.277 5.759-5.66 4.368-5.66 4.368 2.482 1.887-.199 5.163c-2.68 3.277-4.964 1.59-4.964 1.59v92.14h-36.142v-91.644s-3.177.794-4.865-2.185-.1-5.262-.1-5.262-5.067-.795-6.058-4.468c-.99-3.674 3.974-5.958 3.974-5.958l-.298-6.454s-33.064-1.886-74.766 37.433-50.439 74.666-50.439 74.666-72.869-79.815-74.634-191.227c-.022-1.387 1.358-2.878 1.358-4.275 0-1.065-1.386-2.026-1.38-3.082.01-1.467.026-2.924.048-4.373 0 0 4.807-4.261 5.105-10.815.316-6.95-4.259-11.399-4.259-11.399 5.082-82.697 30.193-131.827 39.816-147.875 1.875-.285 3.39-.955 3.39-.955s1.34-.62 2.65-1.783c5.841 7.754 22.603 28.753 46.646 48.39 1.39 1.135 1.293 3.552 2.732 4.676 1.56 1.22 4.661 1.144 6.276 2.342 5.359 3.974 11.014 7.813 16.933 11.385 45.458 27.436 80.325 27.305 80.325 27.305z"></path></svg>
